<?xml version="1.0" encoding="utf-8"?>
<!-- Generator: Adobe Illustrator 23.0.1, SVG Export Plug-In . SVG Version: 6.00 Build 0)  -->
<svg version="1.1" id="Layer_3" xmlns="http://www.w3.org/2000/svg" xmlns:xlink="http://www.w3.org/1999/xlink" x="0px" y="0px"
	 viewBox="0 0 500 500" style="enable-background:new 0 0 500 500;" xml:space="preserve">
<style type="text/css">
	.st0{fill:none;stroke:#141E28;stroke-width:30;stroke-linecap:round;stroke-miterlimit:10;}
	.st1{fill:#141E28;}
	.st2{fill:none;stroke:#141E28;stroke-width:30;stroke-miterlimit:10;}
	.st3{fill:none;stroke:#141E28;stroke-width:10;stroke-miterlimit:10;}
</style>
<title>services-audio-video</title>
<line class="st0" x1="323" y1="45.5" x2="177" y2="454.5"/>
<path class="st1" d="M204.3,52.5h-79.7c-31.3,0-56.7,25.4-56.7,56.7v222.7c0,31.3,25.4,56.7,56.7,56.7h79.7L261,210.3V109.2
	C261,77.8,235.6,52.5,204.3,52.5z M174.9,141.4c0,5.7-4.7,10.4-10.4,10.4h0c-5.7,0-10.4-4.7-10.4-10.4v-34.7
	c0-5.7,4.7-10.4,10.4-10.4h0c5.7,0,10.4,4.7,10.4,10.4V141.4z"/>
<polyline class="st2" points="302.8,113.6 453,113.6 453,426.4 247,426.4 247,255.8 "/>
<line class="st3" x1="411.1" y1="163.6" x2="279.7" y2="163.6"/>
<line class="st3" x1="411.1" y1="190.2" x2="282.3" y2="190.2"/>
<line class="st3" x1="411.1" y1="216.8" x2="282.3" y2="216.8"/>
<line class="st3" x1="411.1" y1="243.4" x2="282.3" y2="243.4"/>
<line class="st3" x1="411.1" y1="270" x2="282.3" y2="270"/>
<line class="st3" x1="411.1" y1="296.6" x2="282.3" y2="296.6"/>
<line class="st3" x1="411.1" y1="323.2" x2="282.3" y2="323.2"/>
<line class="st3" x1="411.1" y1="349.8" x2="282.3" y2="349.8"/>
<line class="st3" x1="411.1" y1="376.4" x2="282.3" y2="376.4"/>
</svg>
